<?xml version="1.0" encoding="UTF-8"?>
<svg id="Layer_2" data-name="Layer 2" xmlns="http://www.w3.org/2000/svg" viewBox="0 0 567.46 543.56">
  <defs>
    <style>
      .cls-1 {
        fill: #660b18;
      }
    </style>
  </defs>
  <g id="Layer_1-2" data-name="Layer 1">
    <g>
      <path d="M168.97,148.98l-53.57.12c-3.44,0-6.23,2.8-6.23,6.25l.02,168.4c.01,15.65.56,30.55,1.36,45.65,1.06,19.76,25.77,21.7,35.29,25.39,1.16.45,1.62,2.59,1.59,4.92-.04,3.37-2.87,6.04-6.24,6.04l-134.94.02c-3.45,0-6.25-2.8-6.25-6.25h0c0-2.94,2.06-5.48,4.94-6.1,16.17-3.48,27-11.07,27.06-31.59l.61-206.41c.01-3.4-2.71-6.19-6.11-6.26l-20.39-.44c-3.4-.07-6.11-2.85-6.11-6.24v-.28c0-2.94,2.05-5.48,4.93-6.1l9.26-2c33.2-7.18,8.52-37.06,58.72-91.74C94.92,18.38,122.59,5.5,153.84.09c.36-.06.73-.09,1.1-.09h28.71c.81,0,1.61.17,2.36.47,9.77,3.83,24.01,4.84,35.06,15.12,14.17,13.2,12.68,39.84-4.07,50.33-18.04,11.28-42.17,5.43-55.22-10.41l-20.82-25.27c-2.15-2.6-8.46-5.32-11.48-4.65-3.48.76-8.64,6.01-9.66,10.16-7.33,29.55-9.56,58.38-10.42,89.14-.1,3.51,2.71,6.42,6.22,6.43l39.93.16c.09-.02.18-.03.27-.03l135.98-.05c2.19,0,3.86,6.78,2.7,8.41-4.28,6.02-19.62,4.11-24.09,13.82-2.8,6.11-1.21,15.76,1.37,22.49l50.9,132.51c2.91,7.59,13.67,7.51,16.47-.12l49.62-135.23c2.1-5.74,2.01-11.5,1.43-17.49-.27-2.78-1.82-5.3-4.22-6.74-9.68-5.77-17.84-3.83-22.27-9.13-1.32-1.57.33-8.48,2.85-8.48h80.57c.12-.03.24-.04.36-.04h104.03c4.99,0,9.18,4.15,8.8,9.13-.53,6.83-8.83,7.67-19.04,10.73h1.04v70.68l.26.06-.02,151.41c0,21.53,21.08,20.88,24.56,26.74.99,1.68-.4,8.14-2.35,8.14l-119.69.05c-3.42,0-4.57-6.13-3.49-8.21,3.09-5.94,27.23-4.19,27.2-28.23l-.18-136.05h-.29l-1.37-76.47c-.01-.84-.2-1.67-.54-2.43-1.37-3.09-1.85-4.28-4.59-6.55-4.02-3.33-6.43-4.19-10.7-5.7-2.74-.98-8.84-.65-11.22,0-9.02,2.45-22.31,5.49-29.21,23.99l-101.31,271.49c-9.73,26.07-21.99,48.88-37.66,70.96-19.91,28.07-53.64,39.87-85.96,27.58-11.61-4.42-20.02-14.94-22.18-25.11-2.67-12.62-.73-26.27,9.22-34.56,22.59-18.83,54.61-9.88,68.74,15.14,1.91,3.38,8.27,6.91,11.55,7.31,14.6,1.74,35.79-49.08,41.89-67.33.68-2.03.61-4.23-.22-6.21l-109.6-261.72c-3.45-8.25-8.02-13.06-12.73-16.22-1.02-.69-2.23-1.04-3.47-1.03"/>
      <path class="cls-1" d="M541.92,24.79c8.66,13.33,7.94,30.48-.29,43.08-7.65,11.72-21.7,18.92-37.19,18.89-15.8-.03-30.33-7.72-37.66-20.2-8.08-13.74-7.48-31.59,2.34-44.3,9.04-11.7,22.28-16.89,36.22-16.68,13.7.21,27.82,5.74,36.58,19.21Z"/>
    </g>
  </g>
</svg>